<?xml version="1.0" encoding="UTF-8"?><svg id="a" xmlns="http://www.w3.org/2000/svg" viewBox="0 0 209.83 39.05"><defs><style>.b{fill:#020202;}.c{fill:#05c3d4;}</style></defs><g><polygon class="c" points="164.64 10.47 175.11 0 167.26 0 156.79 10.47 148.93 10.47 148.93 0 143.7 0 143.7 26.18 148.93 26.18 148.93 15.71 156.79 15.71 167.26 26.18 175.11 26.18 162.02 13.09 164.6 10.47 164.64 10.47"/><rect class="b" x="35.82" width="31.41" height="5.24"/><rect class="b" x="35.82" y="10.47" width="31.41" height="5.24"/><rect class="b" x="35.82" y="20.94" width="31.41" height="5.24"/><path class="c" d="M209.83,5.24V0h-26.18c-2.89,0-5.24,2.34-5.24,5.24v15.71c0,2.89,2.34,5.24,5.24,5.24h26.18v-5.24h-26.18V5.24h26.18Z"/><polygon class="b" points="13.09 0 0 0 0 5.24 13.09 5.24 13.09 26.18 18.32 26.18 18.32 5.24 31.41 5.24 31.41 0 18.32 0 13.09 0"/><path class="c" d="M139.29,26.18V5.24c0-2.89-2.34-5.24-5.24-5.24h-20.94c-2.89,0-5.24,2.34-5.24,5.24V26.18h5.24V15.71h20.94v10.47h5.24Zm-26.18-15.71V5.24h20.94v5.24h-20.94Z"/><polygon class="b" points="97.06 0 87.55 9.38 78.05 0 70.54 0 83.8 13.09 70.54 26.18 78.05 26.18 87.55 16.8 97.06 26.18 104.57 26.18 91.31 13.09 104.57 0 97.06 0"/></g><g><path d="M35.32,32.65h-2.45v6.26h-1v-6.26h-2.44v-.89h5.89v.89Z"/><path d="M42.57,38.02v.89h-5.19v-7.15h5.04v.89h-4.02v2.2h3.58v.87h-3.58v2.31h4.17Z"/><path d="M45.32,31.76l1.87,2.61,1.87-2.61h1.19l-2.42,3.43,2.61,3.72h-1.21l-2.05-2.85-2.04,2.85h-1.17l2.6-3.68-2.43-3.47h1.17Z"/><path d="M58.46,31.76v7.15h-1.02v-3.19h-4.1v3.19h-1.02v-7.15h1.02v3.07h4.1v-3.07h1.02Z"/><path d="M61.5,31.76h1.01v5.51l4.23-5.51h.94v7.15h-1v-5.5l-4.24,5.5h-.94v-7.15Z"/><path d="M73.22,35.77h-1.49v3.14h-1v-7.15h1v3.1h1.51l2.25-3.1h1.09l-2.55,3.46,2.68,3.69h-1.16l-2.32-3.14Z"/><path d="M83.11,37.12h-3.8l-.79,1.79h-1.05l3.24-7.15h1.01l3.25,7.15h-1.07l-.79-1.79Zm-.36-.82l-1.54-3.5-1.54,3.5h3.08Z"/><path d="M90.59,31.76h1.01v5.51l4.23-5.51h.94v7.15h-1v-5.5l-4.24,5.5h-.94v-7.15Z"/><path d="M108.02,37.12h-3.8l-.79,1.79h-1.05l3.24-7.15h1.01l3.25,7.15h-1.07l-.79-1.79Zm-.36-.82l-1.54-3.5-1.54,3.5h3.08Z"/><path d="M114.42,35.77h-1.49v3.14h-1v-7.15h1v3.1h1.51l2.25-3.1h1.09l-2.55,3.46,2.68,3.69h-1.16l-2.32-3.14Z"/><path d="M121.01,38.52c-.58-.32-1.03-.75-1.35-1.31s-.49-1.18-.49-1.87,.16-1.32,.49-1.87,.78-.99,1.36-1.31c.58-.32,1.23-.47,1.94-.47,.56,0,1.07,.09,1.53,.28,.46,.19,.86,.46,1.18,.83l-.66,.64c-.54-.56-1.21-.85-2.01-.85-.53,0-1.01,.12-1.44,.36s-.76,.57-1.01,.98c-.24,.42-.36,.89-.36,1.4s.12,.98,.36,1.4,.58,.75,1.01,.99,.91,.36,1.44,.36c.8,0,1.47-.29,2.01-.86l.66,.64c-.33,.37-.72,.65-1.19,.84s-.98,.29-1.54,.29c-.71,0-1.36-.16-1.93-.47Z"/><path d="M133.09,38.02v.89h-5.19v-7.15h5.04v.89h-4.02v2.2h3.58v.87h-3.58v2.31h4.17Z"/><path d="M136.74,38.52c-.58-.32-1.03-.75-1.35-1.31s-.49-1.18-.49-1.87,.16-1.32,.49-1.87,.78-.99,1.36-1.31c.58-.32,1.23-.47,1.94-.47,.56,0,1.07,.09,1.53,.28,.46,.19,.86,.46,1.18,.83l-.66,.64c-.54-.56-1.21-.85-2.01-.85-.53,0-1.01,.12-1.44,.36s-.76,.57-1.01,.98c-.24,.42-.36,.89-.36,1.4s.12,.98,.36,1.4,.58,.75,1.01,.99,.91,.36,1.44,.36c.8,0,1.47-.29,2.01-.86l.66,.64c-.33,.37-.72,.65-1.19,.84s-.98,.29-1.54,.29c-.71,0-1.36-.16-1.93-.47Z"/><path d="M144.74,38.52c-.58-.32-1.03-.75-1.35-1.31s-.49-1.18-.49-1.87,.16-1.32,.49-1.87,.78-.99,1.36-1.31c.58-.32,1.23-.47,1.94-.47,.56,0,1.07,.09,1.53,.28,.46,.19,.86,.46,1.18,.83l-.66,.64c-.54-.56-1.21-.85-2.01-.85-.53,0-1.01,.12-1.44,.36s-.76,.57-1.01,.98c-.24,.42-.36,.89-.36,1.4s.12,.98,.36,1.4,.58,.75,1.01,.99,.91,.36,1.44,.36c.8,0,1.47-.29,2.01-.86l.66,.64c-.33,.37-.72,.65-1.19,.84s-.98,.29-1.54,.29c-.71,0-1.36-.16-1.93-.47Z"/><path d="M157.3,31.76l-3.18,5.89c-.25,.47-.55,.82-.89,1.05-.34,.23-.71,.35-1.11,.35-.31,0-.63-.07-.96-.21l.27-.82c.25,.09,.48,.13,.67,.13,.45,0,.82-.24,1.11-.72l.16-.25-2.88-5.42h1.09l2.32,4.53,2.38-4.53h1.01Z"/><path d="M163.59,37.12h-3.8l-.79,1.79h-1.05l3.24-7.15h1.01l3.25,7.15h-1.07l-.79-1.79Zm-.36-.82l-1.54-3.5-1.54,3.5h3.08Z"/><path d="M172.47,32.43c.53,.44,.8,1.05,.8,1.83s-.27,1.39-.8,1.83-1.26,.66-2.19,.66h-1.77v2.17h-1.02v-7.15h2.79c.93,0,1.65,.22,2.19,.66Zm-.73,3.02c.34-.28,.51-.67,.51-1.19s-.17-.91-.51-1.19c-.34-.28-.83-.41-1.48-.41h-1.74v3.21h1.74c.65,0,1.14-.14,1.48-.41Z"/><path d="M180.6,34.83c.45,.38,.68,.94,.68,1.69,0,.78-.24,1.38-.73,1.79-.49,.41-1.18,.61-2.09,.61h-2.95v-7.15h1.01v2.49h2.12c.85,0,1.5,.19,1.96,.57Zm-.82,2.87c.32-.27,.47-.66,.47-1.17,0-.98-.61-1.47-1.84-1.47h-1.9v3.04h1.9c.59,0,1.05-.13,1.36-.4Zm2.63-5.94h1.01v7.15h-1.01v-7.15Z"/></g></svg>