<?xml version="1.0" encoding="utf-8"?>
<!-- Generator: Adobe Illustrator 27.5.0, SVG Export Plug-In . SVG Version: 6.00 Build 0)  -->
<!DOCTYPE svg PUBLIC "-//W3C//DTD SVG 1.1//EN" "http://www.w3.org/Graphics/SVG/1.1/DTD/svg11.dtd" [
	<!ENTITY ns_extend "http://ns.adobe.com/Extensibility/1.0/">
	<!ENTITY ns_ai "http://ns.adobe.com/AdobeIllustrator/10.0/">
	<!ENTITY ns_graphs "http://ns.adobe.com/Graphs/1.0/">
	<!ENTITY ns_vars "http://ns.adobe.com/Variables/1.0/">
	<!ENTITY ns_imrep "http://ns.adobe.com/ImageReplacement/1.0/">
	<!ENTITY ns_sfw "http://ns.adobe.com/SaveForWeb/1.0/">
	<!ENTITY ns_custom "http://ns.adobe.com/GenericCustomNamespace/1.0/">
	<!ENTITY ns_adobe_xpath "http://ns.adobe.com/XPath/1.0/">
]>
<svg version="1.1" id="Слой_3" xmlns:x="&ns_extend;" xmlns:i="&ns_ai;" xmlns:graph="&ns_graphs;"
	 xmlns="http://www.w3.org/2000/svg" xmlns:xlink="http://www.w3.org/1999/xlink" x="0px" y="0px" viewBox="0 0 368.5 72.1"
	 style="enable-background:new 0 0 368.5 72.1;" xml:space="preserve">
<style type="text/css">
	.st0{fill:#FFFFFF;}
</style>
<metadata>
	<sfw  xmlns="&ns_sfw;">
		<slices></slices>
		<sliceSourceBounds  bottomLeftOrigin="true" height="72.1" width="368.5" x="236.7" y="-714.1"></sliceSourceBounds>
	</sfw>
</metadata>
<g>
	<g>
		<polygon class="st0" points="289.1,18.4 307.5,0 293.7,0 275.4,18.4 261.6,18.4 261.6,0 252.4,0 252.4,46 261.6,46 261.6,27.6 
			275.4,27.6 293.7,46 307.5,46 284.5,23 289.1,18.4 		"/>
		<rect x="62.9" y="0" class="st0" width="55.2" height="9.2"/>
		<rect x="62.9" y="18.4" class="st0" width="55.2" height="9.2"/>
		<rect x="62.9" y="36.8" class="st0" width="55.2" height="9.2"/>
		<path class="st0" d="M368.5,9.2V0h-46c-5.1,0-9.2,4.1-9.2,9.2v27.6c0,5.1,4.1,9.2,9.2,9.2h46v-9.2h-46V9.2H368.5z"/>
		<polygon class="st0" points="23,0 0,0 0,9.2 23,9.2 23,46 32.2,46 32.2,9.2 55.2,9.2 55.2,0 32.2,0 		"/>
		<path class="st0" d="M244.6,46V27.6v-9.2V9.2c0-5.1-4.1-9.2-9.2-9.2h0h-36.8c-5.1,0-9.2,4.1-9.2,9.2v9.2v9.2V46h9.2V27.6h36.8V46
			H244.6z M198.7,18.4V9.2h36.8v9.2H198.7z"/>
		<polygon class="st0" points="170.5,0 153.8,16.5 137.1,0 123.9,0 147.2,23 123.9,46 137.1,46 153.8,29.5 170.5,46 183.7,46 
			160.4,23 183.7,0 		"/>
	</g>
	<g>
		<path class="st0" d="M58.5,60.9h-4.3v11h-1.8v-11h-4.3v-1.6h10.3V60.9z"/>
		<path class="st0" d="M71.3,70.3v1.6h-9.1V59.3H71v1.6h-7.1v3.9h6.3v1.5h-6.3v4.1H71.3z"/>
		<path class="st0" d="M76.1,59.3l3.3,4.6l3.3-4.6h2.1l-4.2,6l4.6,6.5H83l-3.6-5l-3.6,5h-2.1l4.6-6.5L74,59.3H76.1z"/>
		<path class="st0" d="M99.2,59.3v12.6h-1.8v-5.6h-7.2v5.6h-1.8V59.3h1.8v5.4h7.2v-5.4H99.2z"/>
		<path class="st0" d="M104.5,59.3h1.8V69l7.4-9.7h1.7v12.6h-1.8v-9.7l-7.4,9.7h-1.7V59.3z"/>
		<path class="st0" d="M125.1,66.3h-2.6v5.5h-1.8V59.3h1.8v5.5h2.7l3.9-5.5h1.9l-4.5,6.1l4.7,6.5h-2L125.1,66.3z"/>
		<path class="st0" d="M142.5,68.7h-6.7l-1.4,3.1h-1.8l5.7-12.6h1.8l5.7,12.6h-1.9L142.5,68.7z M141.8,67.3l-2.7-6.2l-2.7,6.2H141.8
			z"/>
		<path class="st0" d="M155.6,59.3h1.8V69l7.4-9.7h1.7v12.6h-1.8v-9.7l-7.4,9.7h-1.7V59.3z"/>
		<path class="st0" d="M186.2,68.7h-6.7l-1.4,3.1h-1.8l5.7-12.6h1.8l5.7,12.6h-1.9L186.2,68.7z M185.6,67.3l-2.7-6.2l-2.7,6.2H185.6
			z"/>
		<path class="st0" d="M197.4,66.3h-2.6v5.5h-1.8V59.3h1.8v5.5h2.7l3.9-5.5h1.9l-4.5,6.1l4.7,6.5h-2L197.4,66.3z"/>
		<path class="st0" d="M209,71.2c-1-0.6-1.8-1.3-2.4-2.3s-0.9-2.1-0.9-3.3c0-1.2,0.3-2.3,0.9-3.3c0.6-1,1.4-1.7,2.4-2.3
			c1-0.6,2.2-0.8,3.4-0.8c1,0,1.9,0.2,2.7,0.5c0.8,0.3,1.5,0.8,2.1,1.5l-1.2,1.1c-0.9-1-2.1-1.5-3.5-1.5c-0.9,0-1.8,0.2-2.5,0.6
			c-0.8,0.4-1.3,1-1.8,1.7c-0.4,0.7-0.6,1.6-0.6,2.5c0,0.9,0.2,1.7,0.6,2.5c0.4,0.7,1,1.3,1.8,1.7c0.8,0.4,1.6,0.6,2.5,0.6
			c1.4,0,2.6-0.5,3.5-1.5l1.2,1.1c-0.6,0.6-1.3,1.1-2.1,1.5c-0.8,0.3-1.7,0.5-2.7,0.5C211.2,72,210,71.7,209,71.2z"/>
		<path class="st0" d="M230.2,70.3v1.6h-9.1V59.3h8.9v1.6h-7.1v3.9h6.3v1.5h-6.3v4.1H230.2z"/>
		<path class="st0" d="M236.6,71.2c-1-0.6-1.8-1.3-2.4-2.3s-0.9-2.1-0.9-3.3c0-1.2,0.3-2.3,0.9-3.3c0.6-1,1.4-1.7,2.4-2.3
			c1-0.6,2.2-0.8,3.4-0.8c1,0,1.9,0.2,2.7,0.5c0.8,0.3,1.5,0.8,2.1,1.5l-1.2,1.1c-0.9-1-2.1-1.5-3.5-1.5c-0.9,0-1.8,0.2-2.5,0.6
			c-0.8,0.4-1.3,1-1.8,1.7c-0.4,0.7-0.6,1.6-0.6,2.5c0,0.9,0.2,1.7,0.6,2.5c0.4,0.7,1,1.3,1.8,1.7c0.8,0.4,1.6,0.6,2.5,0.6
			c1.4,0,2.6-0.5,3.5-1.5l1.2,1.1c-0.6,0.6-1.3,1.1-2.1,1.5c-0.8,0.3-1.7,0.5-2.7,0.5C238.8,72,237.6,71.7,236.6,71.2z"/>
		<path class="st0" d="M250.7,71.2c-1-0.6-1.8-1.3-2.4-2.3s-0.9-2.1-0.9-3.3c0-1.2,0.3-2.3,0.9-3.3c0.6-1,1.4-1.7,2.4-2.3
			c1-0.6,2.2-0.8,3.4-0.8c1,0,1.9,0.2,2.7,0.5c0.8,0.3,1.5,0.8,2.1,1.5l-1.2,1.1c-0.9-1-2.1-1.5-3.5-1.5c-0.9,0-1.8,0.2-2.5,0.6
			c-0.8,0.4-1.3,1-1.8,1.7c-0.4,0.7-0.6,1.6-0.6,2.5c0,0.9,0.2,1.7,0.6,2.5c0.4,0.7,1,1.3,1.8,1.7c0.8,0.4,1.6,0.6,2.5,0.6
			c1.4,0,2.6-0.5,3.5-1.5l1.2,1.1c-0.6,0.6-1.3,1.1-2.1,1.5c-0.8,0.3-1.7,0.5-2.7,0.5C252.8,72,251.7,71.7,250.7,71.2z"/>
		<path class="st0" d="M272.7,59.3l-5.6,10.3c-0.4,0.8-1,1.4-1.6,1.8c-0.6,0.4-1.2,0.6-2,0.6c-0.6,0-1.1-0.1-1.7-0.4l0.5-1.4
			c0.4,0.2,0.8,0.2,1.2,0.2c0.8,0,1.4-0.4,2-1.3l0.3-0.4l-5.1-9.5h1.9l4.1,8l4.2-8H272.7z"/>
		<path class="st0" d="M283.8,68.7h-6.7l-1.4,3.1h-1.8l5.7-12.6h1.8l5.7,12.6h-1.9L283.8,68.7z M283.2,67.3l-2.7-6.2l-2.7,6.2H283.2
			z"/>
		<path class="st0" d="M299.4,60.5c0.9,0.8,1.4,1.8,1.4,3.2c0,1.4-0.5,2.4-1.4,3.2c-0.9,0.8-2.2,1.2-3.8,1.2h-3.1v3.8h-1.8V59.3h4.9
			C297.2,59.3,298.5,59.7,299.4,60.5z M298.1,65.8c0.6-0.5,0.9-1.2,0.9-2.1c0-0.9-0.3-1.6-0.9-2.1c-0.6-0.5-1.5-0.7-2.6-0.7h-3v5.6
			h3C296.6,66.5,297.5,66.2,298.1,65.8z"/>
		<path class="st0" d="M313.7,64.7c0.8,0.7,1.2,1.7,1.2,3c0,1.4-0.4,2.4-1.3,3.1c-0.9,0.7-2.1,1.1-3.7,1.1h-5.2V59.3h1.8v4.4h3.7
			C311.7,63.7,312.9,64,313.7,64.7z M312.2,69.7c0.6-0.5,0.8-1.2,0.8-2.1c0-1.7-1.1-2.6-3.2-2.6h-3.3v5.3h3.3
			C310.9,70.4,311.7,70.2,312.2,69.7z M316.8,59.3h1.8v12.6h-1.8V59.3z"/>
	</g>
</g>
</svg>
